#!OML:ASF H:\Terrain\Walking\May29\JustinRory\Justin.ASF
:FULLY-SPECIFIED
:DEGREES
64
root 9.30102 17.8736 9.30529 -177.702 -11.3875 -179.618
lowerback 2.9777 2.75613 -0.601797
upperback 2.1076 3.59625 0.481161
thorax 0.425568 1.76227 0.735409
lowerneck -16.9077 -6.40799 -14.2791
upperneck 26.5463 -6.79414 2.72092
head 12.2018 -4.48065 2.25525
rclavicle 1.26228e-014 -5.1684e-015
rhumerus 2.7377 2.32168 -80.2744
rradius 39.4396
rwrist -24.287
rhand -2.74534 25.5002
rfingers 7.12502
rthumb 22.9584 -3.15273
lclavicle 1.26228e-014 -5.1684e-015
lhumerus -28.8967 2.06376 78.4997
lradius 49.5459
lwrist -1.22662
lhand -3.88095 37.395
lfingers 7.12502
lthumb 21.8683 66.1792
rfemur -21.3033 0.422353 16.6142
rtibia 19.1738
rfoot -2.00898 -2.80457
rtoes 6.68118
lfemur -4.00359 -5.71401 -21.0043
ltibia 26.5543
lfoot -17.5424 -6.42743
ltoes -6.62315
65
root 9.3199 17.8881 9.22437 -177.766 -11.9434 -178.943
lowerback 3.32998 2.66542 0.355307
upperback 1.88985 3.50428 0.517324
thorax 0.0626057 1.72683 0.218518
lowerneck -16.8012 -6.51994 -14.3014
upperneck 26.5698 -7.0536 3.01883
head 12.2259 -4.56122 2.33136
rclavicle -1.42876e-014 -1.59028e-015
rhumerus 2.03738 3.02948 -80.4294
rradius 39.9902
rwrist -25.2479
rhand -3.04384 26.8928
rfingers 7.12502
rthumb 22.6719 -1.79547
lclavicle -1.42876e-014 -1.59028e-015
lhumerus -29.5137 1.70819 78.2971
lradius 49.4685
lwrist -0.962799
lhand -3.68895 37.9384
lfingers 7.12502
lthumb 22.0526 66.701
rfemur -21.161 0.139556 17.491
rtibia 19.1405
rfoot -1.43449 -2.64003
rtoes 7.63396
lfemur -4.07233 -5.76836 -20.1494
ltibia 26.9339
lfoot -17.4729 -6.53583
ltoes -7.02083
66
root 9.33948 17.9047 9.14062 -177.656 -12.3501 -178.469
lowerback 3.39421 2.58862 0.871159
upperback 1.70747 3.42308 0.696551
thorax -0.140538 1.68959 0.108647
lowerneck -16.5164 -6.61576 -14.5475
upperneck 26.2732 -7.2274 3.31799
head 12.0927 -4.61292 2.46457
rclavicle -2.39784e-014 3.8763e-015
rhumerus 1.56694 3.34137 -80.4823
rradius 40.414
rwrist -25.8834
rhand -0.882483 26.9601
rfingers 7.12502
rthumb 24.7448 -1.45942
lclavicle -2.39784e-014 3.8763e-015
lhumerus -30.1025 1.90831 78.2855
lradius 49.209
lwrist -0.886729
lhand -3.27727 37.926
lfingers 7.12502
lthumb 22.4478 66.6415
rfemur -21.0942 -0.190589 18.1862
rtibia 19.03
rfoot -0.821719 -2.53218
rtoes 6.64434
lfemur -4.35961 -5.70551 -19.5019
ltibia 27.4488
lfoot -17.5329 -6.54422
ltoes -8.01728
67
root 9.35981 17.9082 9.05741 -177.471 -12.6269 -178.175
lowerback 3.29509 2.51558 1.07228
upperback 1.64478 3.33079 0.939458
thorax -0.152703 1.64289 0.250791
lowerneck -16.4304 -6.77195 -14.7384
upperneck 25.8889 -7.35972 3.29656
head 11.9495 -4.66919 2.46885
rclavicle -8.99501e-015 7.15625e-015
rhumerus 1.78875 3.36102 -80.4956
rradius 40.1519
rwrist -26.2435
rhand -1.30756 26.8219
rfingers 7.12502
rthumb 24.3374 -1.65285
lclavicle -8.99501e-015 7.15625e-015
lhumerus -30.5622 2.5122 78.307
lradius 48.8782
lwrist -1.12842
lhand -3.01711 37.866
lfingers 7.12502
lthumb 22.6975 66.5511
rfemur -21.237 -0.416042 18.6728
rtibia 19.1521
rfoot -0.318882 -2.66948
rtoes 6.82876
lfemur -4.57895 -5.85285 -19.0412
ltibia 27.8821
lfoot -17.7102 -6.66236
ltoes -6.29809
68
root 9.38299 17.9081 8.97335 -177.377 -13.0227 -177.933
lowerback 3.33089 2.40245 1.19237
upperback 1.56853 3.18416 1.16126
thorax -0.257257 1.56779 0.411494
lowerneck -16.4354 -6.95008 -14.8212
upperneck 25.7326 -7.53648 3.16336
head 11.9088 -4.76104 2.40199
rclavicle -3.62782e-014 1.39149e-014
rhumerus 0.959807 4.14829 -80.3231
rradius 41.1477
rwrist -26.8367
rhand -0.230945 26.0136
rfingers 7.12502
rthumb 25.3691 -2.31877
lclavicle -3.62782e-014 1.39149e-014
lhumerus -31.0706 3.12366 78.2938
lradius 48.4536
lwrist -1.5492
lhand -3.04871 37.9184
lfingers 7.12502
lthumb 22.6672 66.6073
rfemur -21.3818 -0.503454 19.0637
rtibia 19.5805
rfoot -0.127295 -3.30614
rtoes 8.25186
lfemur -4.69721 -6.07672 -18.6001
ltibia 28.2504
lfoot -17.5692 -7.01457
ltoes -4.20592
69
root 9.40688 17.917 8.88407 -177.39 -13.5323 -177.959
lowerback 3.53574 2.29086 1.12192
upperback 1.44613 3.04174 1.22744
thorax -0.504595 1.49582 0.510973
lowerneck -16.1522 -7.07589 -14.7984
upperneck 25.5004 -7.76196 3.17069
head 11.7849 -4.85154 2.37295
rclavicle -1.71949e-014 -4.57205e-015
rhumerus 0.00628397 5.00966 -80.2681
rradius 41.9156
rwrist -27.1819
rhand 1.70643 25.0625
rfingers 7.12502
rthumb 27.2238 -2.99307
lclavicle -1.71949e-014 -4.57205e-015
lhumerus -31.6462 3.48933 78.221
lradius 47.861
lwrist -1.93256
lhand -3.82592 36.8424
lfingers 7.12502
lthumb 21.9211 65.6205
rfemur -21.2448 -0.597233 19.1454
rtibia 20.1312
rfoot -0.324501 -3.87721
rtoes 10.6119
lfemur -4.65099 -6.38902 -18.4688
ltibia 28.6294
lfoot -17.3606 -7.11896
ltoes -4.9247
70
root 9.43242 17.9233 8.79937 -177.285 -13.8534 -178.051
lowerback 3.49933 2.19226 1.0611
upperback 1.46097 2.90797 1.20402
thorax -0.470762 1.42932 0.527919
lowerneck -15.9521 -7.18454 -14.7398
upperneck 24.9484 -7.94331 3.32577
head 11.5542 -4.87682 2.40303
rclavicle -1.20762e-014 9.93923e-015
rhumerus -0.585552 6.14513 -80.2524
rradius 42.4137
rwrist -28.0448
rhand 1.01971 25.8517
rfingers 7.12502
rthumb 26.5667 -2.30501
lclavicle -1.20762e-014 9.93923e-015
lhumerus -32.0403 3.92235 78.013
lradius 47.363
lwrist -2.16465
lhand -4.39053 35.8637
lfingers 7.12502
lthumb 21.3789 64.7042
rfemur -21.2939 -0.676724 19.1974
rtibia 20.7358
rfoot -0.663474 -3.97554
rtoes 12.9771
lfemur -4.71426 -6.72204 -18.3822
ltibia 28.9839
lfoot -17.2216 -7.25568
ltoes -3.90762
71
root 9.45692 17.9308 8.71706 -177.111 -14.1556 -178.106
lowerback 3.31073 2.06769 0.996059
upperback 1.56199 2.73295 1.2168
thorax -0.265278 1.34149 0.593632
lowerneck -15.9186 -7.332 -14.8733
upperneck 24.4141 -8.13468 3.65092
head 11.3844 -4.9003 2.51926
rclavicle -3.86885e-014 7.35503e-015
rhumerus -1.12251 8.06494 -80.0953
rradius 43.107
rwrist -29.2324
rhand 0.815202 25.3464
rfingers 7.12502
rthumb 26.371 -2.83985
lclavicle -3.86885e-014 7.35503e-015
lhumerus -32.372 4.43552 77.8113
lradius 47.0072
lwrist -2.13143
lhand -4.29452 36.4653
lfingers 7.12502
lthumb 21.4711 65.2954
rfemur -21.4701 -0.684147 19.2883
rtibia 21.3232
rfoot -0.9443 -3.94733
rtoes 13.9459
lfemur -4.93781 -6.85535 -18.2392
ltibia 29.3798
lfoot -17.0255 -7.58835
ltoes -1.94713
72
root 9.47534 17.943 8.62522 -177.075 -14.7336 -178.122
lowerback 3.2639 1.8887 0.986019
upperback 1.60445 2.49027 1.29802
thorax -0.198809 1.21892 0.693234
lowerneck -15.9247 -7.55595 -15.2824
upperneck 24.208 -8.4262 4.08782
head 11.3804 -5.00008 2.69797
rclavicle -2.78795e-014 -2.5842e-015
rhumerus -2.14401 10.795 -79.8159
rradius 44.265
rwrist -29.6023
rhand -2.18641 24.7596
rfingers 7.12502
rthumb 23.4946 -3.82569
lclavicle -2.78795e-014 -2.5842e-015
lhumerus -32.8103 5.0535 77.7124
lradius 46.5322
lwrist -2.30689
lhand -4.11596 37.1552
lfingers 7.12502
lthumb 21.6426 65.9656
rfemur -21.3047 -0.676579 19.3477
rtibia 21.7358
rfoot -1.34149 -4.07764
rtoes 14.4214
lfemur -5.04432 -7.08929 -18.1152
ltibia 29.8906
lfoot -16.779 -7.59959
ltoes -3.25516
73
root 9.49221 17.9453 8.53307 -177.032 -15.2606 -178.054
lowerback 3.13877 1.78162 1.08504
upperback 1.61618 2.34621 1.38679
thorax -0.115791 1.1465 0.738021
lowerneck -15.744 -7.7976 -15.5552
upperneck 23.961 -8.78281 4.38356
head 11.3205 -5.13832 2.79718
rclavicle 1.59028e-015 1.19271e-015
rhumerus -3.33094 13.3233 -79.6427
rradius 45.5839
rwrist -29.4351
rhand -5.72752 24.0755
rfingers 7.12502
rthumb 20.0943 -4.90536
lclavicle 1.59028e-015 1.19271e-015
lhumerus -33.1931 5.62897 77.6799
lradius 45.9153
lwrist -2.73316
lhand -4.0084 37.2387
lfingers 7.12502
lthumb 21.7459 66.0372
rfemur -21.0311 -0.684842 19.5051
rtibia 21.8201
rfoot -1.67068 -4.25953
rtoes 14.8799
lfemur -5.26944 -7.46715 -17.8649
ltibia 30.6012
lfoot -16.2623 -7.74855
ltoes -5.98401
74
root 9.51721 17.9421 8.44336 -176.992 -15.6042 -178.027
lowerback 3.0434 1.74094 1.1085
upperback 1.62986 2.29067 1.39013
thorax -0.0474127 1.11915 0.733479
lowerneck -15.4817 -7.98771 -15.7421
upperneck 23.6418 -9.11641 4.75737
head 11.2157 -5.24901 2.91881
rclavicle -1.54058e-014 -1.51076e-014
rhumerus -4.22357 15.0192 -79.719
rradius 46.5359
rwrist -29.4492
rhand -7.87948 24.7641
rfingers 7.12502
rthumb 18.0248 -4.42072
lclavicle -1.54058e-014 -1.51076e-014
lhumerus -33.5486 5.92023 77.5513
lradius 45.2921
lwrist -2.98899
lhand -3.67877 37.1593
lfingers 7.12502
lthumb 22.0624 65.9207
rfemur -20.7225 -0.585781 19.6784
rtibia 21.6686
rfoot -1.86741 -4.62594
rtoes 14.9994
lfemur -5.59289 -7.54739 -17.5321
ltibia 31.4296
lfoot -15.7687 -8.62544
ltoes -6.0773
75
root 9.55658 17.9373 8.36037 -177.133 -15.8521 -177.494
lowerback 3.16626 1.73202 1.53373
upperback 1.61681 2.28755 1.49567
thorax -0.116607 1.11662 0.599963
lowerneck -15.4232 -8.25994 -15.9625
upperneck 23.4931 -9.54601 5.18418
head 11.2332 -5.40186 3.04099
rclavicle -1.71949e-014 4.37326e-015
rhumerus -4.91876 15.8984 -79.9934
rradius 47.3581
rwrist -29.7374
rhand -7.8241 25.4192
rfingers 7.12502
rthumb 18.0781 -3.76065
lclavicle -1.71949e-014 4.37326e-015
lhumerus -33.9039 5.9478 77.3169
lradius 44.6247
lwrist -2.94897
lhand -3.55614 37.0864
lfingers 7.12502
lthumb 22.1801 65.8339
rfemur -20.4807 -0.0252514 20.4047
rtibia 21.6662
rfoot -2.22333 -5.33734
rtoes 15.5461
lfemur -5.83432 -7.37144 -16.5896
ltibia 32.0969
lfoot -15.5163 -9.47967
ltoes -5.69214
76
root 9.58424 17.9406 8.2727 -177.316 -16.0977 -177.11
lowerback 3.23823 1.7367 1.91459
upperback 1.76578 2.2921 1.57048
thorax 0.00840916 1.11718 0.464567
lowerneck -15.8104 -8.63909 -16.0463
upperneck 23.4607 -10.0067 5.35572
head 11.3663 -5.57392 3.02544
rclavicle 2.94201e-014 5.1684e-015
rhumerus -5.68976 16.5676 -80.2431
rradius 48.6653
rwrist -29.8292
rhand -8.39204 25.6548
rfingers 7.12502
rthumb 17.5316 -3.57475
lclavicle 2.94201e-014 5.1684e-015
lhumerus -33.9003 6.07156 77.1516
lradius 43.7214
lwrist -2.99528
lhand -3.57435 37.0549
lfingers 7.12502
lthumb 22.1627 65.8045
rfemur -20.1177 0.272273 20.9396
rtibia 21.7588
rfoot -2.79445 -5.75227
rtoes 16.2169
lfemur -5.89497 -7.4215 -15.9478
ltibia 32.7457
lfoot -15.2141 -9.91127
ltoes -7.07518
